<?xml version="1.0" standalone="no"?><!DOCTYPE svg PUBLIC "-//W3C//DTD SVG 1.1//EN" "http://www.w3.org/Graphics/SVG/1.1/DTD/svg11.dtd"><svg t="1588907480262" class="icon" viewBox="0 0 1024 1024" version="1.1" xmlns="http://www.w3.org/2000/svg" p-id="7234" xmlns:xlink="http://www.w3.org/1999/xlink" width="32" height="32"><defs><style type="text/css"></style></defs><path d="M425.8304 349.568c-136.192 0-246.6304 110.4128-246.6304 246.6304 0 136.192 110.4384 246.6304 246.6304 246.6304a246.6048 246.6048 0 0 0 246.6304-246.6304 246.6304 246.6304 0 0 0-246.6304-246.6304m0 61.824c101.888 0 184.8064 82.8928 184.8064 184.8064 0 101.888-82.9184 184.8064-184.8064 184.8064-101.888 0-184.8064-82.9184-184.8064-184.832 0-101.888 82.9184-184.7808 184.8064-184.7808" fill="#69B5FF" p-id="7235"></path><path d="M554.1632 430.4896l240.7424-247.6288L834.56 221.3888l-240.7424 247.6032z" fill="#69B5FF" p-id="7236"></path><path d="M784.128 179.2h-153.6768v55.2448h153.6768v153.6768h55.296V179.2z" fill="#69B5FF" p-id="7237"></path></svg>