<?xml version="1.0" standalone="no"?><!DOCTYPE svg PUBLIC "-//W3C//DTD SVG 1.1//EN" "http://www.w3.org/Graphics/SVG/1.1/DTD/svg11.dtd"><svg t="1588907503993" class="icon" viewBox="0 0 1024 1024" version="1.1" xmlns="http://www.w3.org/2000/svg" p-id="9083" xmlns:xlink="http://www.w3.org/1999/xlink" width="32" height="32"><defs><style type="text/css"></style></defs><path d="M576 192a256 256 0 1 1 0 512 256 256 0 0 1 0-512z m0 64a192 192 0 1 0 0 384 192 192 0 0 0 0-384z" fill="#F65860" p-id="9084"></path><path d="M387.712 590.848l45.312 45.248-158.4 158.4a32 32 0 1 1-45.248-45.248l158.336-158.4z" fill="#F65860" p-id="9085"></path><path d="M251.978916 590.867402m-22.627417 22.627417l0 0q-22.627417 22.627417 0 45.254834l135.764502 135.764502q22.627417 22.627417 45.254834 0l0 0q22.627417-22.627417 0-45.254834l-135.764502-135.764502q-22.627417-22.627417-45.254834 0Z" fill="#F65860" p-id="9086"></path></svg>